<svg width="30" height="30" viewBox="0 0 30 30" fill="none" xmlns="http://www.w3.org/2000/svg">
<g id="Kurv">
<path id="Kurv_2" d="M29.2367 11.0625C28.649 10.3875 27.7862 10 26.8858 10H26.1855C25.5602 4.35 20.7583 0 15.0059 0C9.25353 0 4.45156 4.35 3.8263 10H3.12602C2.22565 10 1.36279 10.3875 0.775049 11.0625C0.187307 11.7375 -0.0878057 12.6375 0.0247405 13.5375L1.42532 24.0375C1.8755 27.4375 4.81421 30 8.24062 30H21.7587C25.1976 30 28.1238 27.4375 28.574 24.0375L29.9746 13.5375C30.0871 12.65 29.8245 11.7375 29.2242 11.0625H29.2367ZM15.0059 1.25C20.0705 1.25 24.3097 5.0375 24.935 10H5.07682C5.68957 5.0375 9.92881 1.25 15.0059 1.25ZM28.749 13.375L27.3485 23.875C26.9733 26.6625 24.5848 28.7625 21.7712 28.7625H8.24062C5.42696 28.7625 3.03848 26.6625 2.66333 23.875L1.26275 13.375C1.18772 12.8375 1.35029 12.3 1.71293 11.8875C2.07558 11.475 2.58829 11.25 3.12602 11.25H26.8858C27.4235 11.25 27.9362 11.4875 28.2989 11.8875C28.6615 12.2875 28.8241 12.8375 28.749 13.375Z" fill="white"/>
</g>
</svg>
